<svg xmlns="http://www.w3.org/2000/svg" width="24" height="24" fill="none"><script xmlns="" id="__gaOptOutExtension"/><g clip-path="url(#a)"><rect width="24" height="24" fill="#fff" rx="12"/><path fill="#464545" fill-rule="evenodd" d="M12 24.023c6.692 0 12.117-5.378 12.117-12.011C24.117 5.378 18.692 0 12 0 5.308 0-.117 5.378-.117 12.012c0 6.633 5.425 12.011 12.117 12.011Zm11.171-12.011c0 6.116-5.002 11.073-11.17 11.073-6.17 0-11.172-4.957-11.172-11.073C.83 5.896 5.83.938 12 .938c6.17 0 11.171 4.958 11.171 11.074Zm-12.998 3.05 2.11 1.208c.021.012.045.012.066 0l7.342-4.202a.063.063 0 0 0 .032-.056.063.063 0 0 0-.032-.056l-2.195-1.257a.064.064 0 0 0-.066 0l-2.11 1.208a.065.065 0 0 1-.065 0 .063.063 0 0 1-.033-.056V9.435a.063.063 0 0 0-.033-.056L7.847 5.177a.064.064 0 0 0-.065 0 .063.063 0 0 0-.033.056v2.513c0 .024.012.044.033.056l2.11 1.208c.02.012.033.032.033.056a.063.063 0 0 1-.033.056l-2.11 1.208a.063.063 0 0 0-.033.056v8.404c0 .024.012.044.033.056.02.012.045.012.065 0l2.195-1.256a.063.063 0 0 0 .033-.056v-2.416c0-.024.012-.044.033-.056a.064.064 0 0 1 .065 0Zm4.899-3.05a.063.063 0 0 1-.033.056l-4.866 2.785a.064.064 0 0 1-.065 0 .063.063 0 0 1-.033-.056v-5.57c0-.024.012-.044.033-.056a.064.064 0 0 1 .065 0l4.866 2.785c.02.011.033.032.033.056Z" clip-rule="evenodd"/><rect width="24" height="24" fill="#fff" rx="12"/><path fill="#464545" fill-rule="evenodd" d="m12.28 16.254-2.09-1.207a.064.064 0 0 0-.064 0 .063.063 0 0 0-.032.056v2.414a.063.063 0 0 1-.033.056l-2.174 1.255a.063.063 0 0 1-.064 0 .063.063 0 0 1-.033-.056v-8.396c0-.024.012-.044.033-.056l2.09-1.207a.063.063 0 0 0 .032-.056.063.063 0 0 0-.032-.056l-2.09-1.206a.063.063 0 0 1-.033-.056v-2.51c0-.024.012-.045.033-.057a.063.063 0 0 1 .064 0L15.16 9.37c.02.012.032.033.032.056v2.413a.064.064 0 0 0 .097.056l2.09-1.206a.063.063 0 0 1 .064 0l2.174 1.255c.02.012.033.032.033.056a.063.063 0 0 1-.033.056l-7.27 4.198a.063.063 0 0 1-.066 0ZM15.043 12a.063.063 0 0 1-.032.056l-4.82 2.782a.062.062 0 0 1-.064 0 .063.063 0 0 1-.032-.056V9.218c0-.024.011-.044.032-.056a.063.063 0 0 1 .065 0l4.819 2.782c.02.012.032.032.032.056Z" clip-rule="evenodd"/><path fill="#464545" fill-rule="evenodd" d="M24 12c0 6.627-5.373 12-12 12S0 18.627 0 12 5.373 0 12 0s12 5.373 12 12ZM12 23.063c6.11 0 11.063-4.953 11.063-11.063S18.11.937 12 .937.937 5.89.937 12 5.89 23.063 12 23.063Z" clip-rule="evenodd"/></g><defs><clipPath id="a"><rect width="24" height="24" fill="#fff" rx="12"/></clipPath></defs></svg>